<mxfile host="app.diagrams.net" modified="2021-05-06T01:09:28.676Z" agent="5.0 (Macintosh; Intel Mac OS X 10_15_7) AppleWebKit/537.36 (KHTML, like Gecko) Chrome/90.0.4430.93 Safari/537.36" etag="A_DIZ-_dhY3UGTk5EUqK" version="14.6.9" type="github">
  <diagram name="Page-1" id="ad52d381-51e7-2e0d-a935-2d0ddd2fd229">
    <mxGraphModel dx="1577" dy="1778" grid="1" gridSize="10" guides="1" tooltips="1" connect="1" arrows="1" fold="1" page="1" pageScale="1" pageWidth="1100" pageHeight="850" background="#ffffff" math="0" shadow="0">
      <root>
        <mxCell id="0" />
        <mxCell id="1" parent="0" />
        <mxCell id="yDHque_QThykMow6FpCP-1" value="" style="whiteSpace=wrap;html=1;rounded=0;shadow=0;comic=0;strokeWidth=1;fontFamily=Verdana;fontSize=14;verticalAlign=top;fontStyle=1" vertex="1" parent="1">
          <mxGeometry x="205" y="-510" width="1350" height="980" as="geometry" />
        </mxCell>
        <mxCell id="yDHque_QThykMow6FpCP-2" value="&lt;font style=&quot;font-size: 24px&quot;&gt;管理员&lt;/font&gt;" style="rounded=0;whiteSpace=wrap;html=1;" vertex="1" parent="1">
          <mxGeometry x="360" y="-310" width="120" height="60" as="geometry" />
        </mxCell>
        <mxCell id="yDHque_QThykMow6FpCP-3" value="&lt;font style=&quot;font-size: 24px&quot;&gt;普通用户&lt;/font&gt;" style="rounded=0;whiteSpace=wrap;html=1;" vertex="1" parent="1">
          <mxGeometry x="820" y="-160" width="120" height="60" as="geometry" />
        </mxCell>
        <mxCell id="yDHque_QThykMow6FpCP-4" value="&lt;font style=&quot;font-size: 24px&quot;&gt;订单&lt;/font&gt;" style="rounded=0;whiteSpace=wrap;html=1;" vertex="1" parent="1">
          <mxGeometry x="535" y="120" width="120" height="60" as="geometry" />
        </mxCell>
        <mxCell id="yDHque_QThykMow6FpCP-6" value="&lt;font style=&quot;font-size: 24px&quot;&gt;采购信息&lt;/font&gt;" style="rounded=0;whiteSpace=wrap;html=1;" vertex="1" parent="1">
          <mxGeometry x="820" y="120" width="120" height="60" as="geometry" />
        </mxCell>
        <mxCell id="yDHque_QThykMow6FpCP-7" value="&lt;font style=&quot;font-size: 24px&quot;&gt;商品信息&lt;/font&gt;" style="rounded=0;whiteSpace=wrap;html=1;" vertex="1" parent="1">
          <mxGeometry x="1080" y="120" width="120" height="60" as="geometry" />
        </mxCell>
        <mxCell id="yDHque_QThykMow6FpCP-8" value="&lt;font style=&quot;font-size: 24px&quot;&gt;果农&lt;/font&gt;" style="rounded=0;whiteSpace=wrap;html=1;" vertex="1" parent="1">
          <mxGeometry x="1305" y="-320" width="120" height="60" as="geometry" />
        </mxCell>
        <mxCell id="yDHque_QThykMow6FpCP-9" value="&lt;font style=&quot;font-size: 24px&quot;&gt;果商&lt;/font&gt;" style="rounded=0;whiteSpace=wrap;html=1;" vertex="1" parent="1">
          <mxGeometry x="1310" y="-110" width="120" height="60" as="geometry" />
        </mxCell>
        <mxCell id="yDHque_QThykMow6FpCP-10" value="&lt;span style=&quot;font-size: 24px&quot;&gt;中介&lt;/span&gt;" style="rounded=0;whiteSpace=wrap;html=1;" vertex="1" parent="1">
          <mxGeometry x="1310" y="-210" width="120" height="60" as="geometry" />
        </mxCell>
        <mxCell id="yDHque_QThykMow6FpCP-11" value="&lt;font style=&quot;font-size: 24px&quot;&gt;属于&lt;/font&gt;" style="rhombus;whiteSpace=wrap;html=1;" vertex="1" parent="1">
          <mxGeometry x="530" y="-20" width="130" height="80" as="geometry" />
        </mxCell>
        <mxCell id="yDHque_QThykMow6FpCP-13" value="&lt;font style=&quot;font-size: 24px&quot;&gt;属于&lt;/font&gt;" style="rhombus;whiteSpace=wrap;html=1;" vertex="1" parent="1">
          <mxGeometry x="1075" y="-30" width="130" height="80" as="geometry" />
        </mxCell>
        <mxCell id="yDHque_QThykMow6FpCP-16" value="&lt;font style=&quot;font-size: 24px&quot;&gt;属于&lt;/font&gt;" style="rhombus;whiteSpace=wrap;html=1;" vertex="1" parent="1">
          <mxGeometry x="815" y="-20" width="130" height="80" as="geometry" />
        </mxCell>
        <mxCell id="yDHque_QThykMow6FpCP-21" value="" style="endArrow=none;html=1;entryX=0;entryY=1;entryDx=0;entryDy=0;exitX=0.5;exitY=0;exitDx=0;exitDy=0;startArrow=none;" edge="1" parent="1" source="yDHque_QThykMow6FpCP-39" target="yDHque_QThykMow6FpCP-3">
          <mxGeometry width="50" height="50" relative="1" as="geometry">
            <mxPoint x="650" y="-40" as="sourcePoint" />
            <mxPoint x="700" y="-90" as="targetPoint" />
          </mxGeometry>
        </mxCell>
        <mxCell id="yDHque_QThykMow6FpCP-25" value="" style="endArrow=none;html=1;entryX=0.5;entryY=1;entryDx=0;entryDy=0;exitX=0.5;exitY=0;exitDx=0;exitDy=0;" edge="1" parent="1" source="yDHque_QThykMow6FpCP-4" target="yDHque_QThykMow6FpCP-11">
          <mxGeometry width="50" height="50" relative="1" as="geometry">
            <mxPoint x="580" y="120" as="sourcePoint" />
            <mxPoint x="630" y="70" as="targetPoint" />
          </mxGeometry>
        </mxCell>
        <mxCell id="yDHque_QThykMow6FpCP-27" value="" style="endArrow=none;html=1;entryX=0.5;entryY=1;entryDx=0;entryDy=0;exitX=0.5;exitY=0;exitDx=0;exitDy=0;" edge="1" parent="1" source="yDHque_QThykMow6FpCP-16" target="yDHque_QThykMow6FpCP-3">
          <mxGeometry width="50" height="50" relative="1" as="geometry">
            <mxPoint x="860" y="-40" as="sourcePoint" />
            <mxPoint x="910" y="-90" as="targetPoint" />
          </mxGeometry>
        </mxCell>
        <mxCell id="yDHque_QThykMow6FpCP-28" value="" style="endArrow=none;html=1;entryX=0.5;entryY=1;entryDx=0;entryDy=0;exitX=0.5;exitY=0;exitDx=0;exitDy=0;" edge="1" parent="1" source="yDHque_QThykMow6FpCP-6" target="yDHque_QThykMow6FpCP-16">
          <mxGeometry width="50" height="50" relative="1" as="geometry">
            <mxPoint x="860" y="120" as="sourcePoint" />
            <mxPoint x="910" y="70" as="targetPoint" />
          </mxGeometry>
        </mxCell>
        <mxCell id="yDHque_QThykMow6FpCP-29" value="" style="endArrow=none;html=1;exitX=1;exitY=1;exitDx=0;exitDy=0;entryX=0.5;entryY=0;entryDx=0;entryDy=0;" edge="1" parent="1" source="yDHque_QThykMow6FpCP-3" target="yDHque_QThykMow6FpCP-13">
          <mxGeometry width="50" height="50" relative="1" as="geometry">
            <mxPoint x="1060" y="-40" as="sourcePoint" />
            <mxPoint x="1110" y="-90" as="targetPoint" />
          </mxGeometry>
        </mxCell>
        <mxCell id="yDHque_QThykMow6FpCP-30" value="" style="endArrow=none;html=1;entryX=0.5;entryY=1;entryDx=0;entryDy=0;exitX=0.5;exitY=0;exitDx=0;exitDy=0;" edge="1" parent="1" source="yDHque_QThykMow6FpCP-7" target="yDHque_QThykMow6FpCP-13">
          <mxGeometry width="50" height="50" relative="1" as="geometry">
            <mxPoint x="1120" y="110" as="sourcePoint" />
            <mxPoint x="1170" y="60" as="targetPoint" />
          </mxGeometry>
        </mxCell>
        <mxCell id="yDHque_QThykMow6FpCP-33" value="&lt;font style=&quot;font-size: 24px&quot;&gt;管理&lt;/font&gt;" style="rhombus;whiteSpace=wrap;html=1;" vertex="1" parent="1">
          <mxGeometry x="555" y="-240" width="130" height="80" as="geometry" />
        </mxCell>
        <mxCell id="yDHque_QThykMow6FpCP-35" value="" style="endArrow=none;html=1;entryX=0.5;entryY=0;entryDx=0;entryDy=0;exitX=1;exitY=0.5;exitDx=0;exitDy=0;startArrow=none;" edge="1" parent="1" source="yDHque_QThykMow6FpCP-44" target="yDHque_QThykMow6FpCP-3">
          <mxGeometry width="50" height="50" relative="1" as="geometry">
            <mxPoint x="820" y="-170" as="sourcePoint" />
            <mxPoint x="870" y="-220" as="targetPoint" />
          </mxGeometry>
        </mxCell>
        <mxCell id="yDHque_QThykMow6FpCP-36" value="" style="endArrow=none;html=1;exitX=1;exitY=0.5;exitDx=0;exitDy=0;entryX=0;entryY=0.5;entryDx=0;entryDy=0;startArrow=none;" edge="1" parent="1" source="yDHque_QThykMow6FpCP-37" target="yDHque_QThykMow6FpCP-33">
          <mxGeometry width="50" height="50" relative="1" as="geometry">
            <mxPoint x="570" y="-240" as="sourcePoint" />
            <mxPoint x="620" y="-290" as="targetPoint" />
          </mxGeometry>
        </mxCell>
        <mxCell id="yDHque_QThykMow6FpCP-40" value="&lt;font style=&quot;font-size: 24px&quot;&gt;1&lt;/font&gt;" style="text;html=1;strokeColor=none;fillColor=none;align=center;verticalAlign=middle;whiteSpace=wrap;rounded=0;" vertex="1" parent="1">
          <mxGeometry x="880" y="-60" width="40" height="20" as="geometry" />
        </mxCell>
        <mxCell id="yDHque_QThykMow6FpCP-42" value="&lt;font style=&quot;font-size: 24px&quot;&gt;1&lt;/font&gt;" style="text;html=1;strokeColor=none;fillColor=none;align=center;verticalAlign=middle;whiteSpace=wrap;rounded=0;" vertex="1" parent="1">
          <mxGeometry x="1020" y="-60" width="40" height="20" as="geometry" />
        </mxCell>
        <mxCell id="yDHque_QThykMow6FpCP-48" value="&lt;font style=&quot;font-size: 24px&quot;&gt;n&lt;/font&gt;" style="text;html=1;strokeColor=none;fillColor=none;align=center;verticalAlign=middle;whiteSpace=wrap;rounded=0;" vertex="1" parent="1">
          <mxGeometry x="1120" y="80" width="40" height="20" as="geometry" />
        </mxCell>
        <mxCell id="yDHque_QThykMow6FpCP-50" value="&lt;font style=&quot;font-size: 24px&quot;&gt;n&lt;/font&gt;" style="text;html=1;strokeColor=none;fillColor=none;align=center;verticalAlign=middle;whiteSpace=wrap;rounded=0;" vertex="1" parent="1">
          <mxGeometry x="860" y="80" width="40" height="20" as="geometry" />
        </mxCell>
        <mxCell id="yDHque_QThykMow6FpCP-51" value="&lt;font style=&quot;font-size: 24px&quot;&gt;n&lt;/font&gt;" style="text;html=1;strokeColor=none;fillColor=none;align=center;verticalAlign=middle;whiteSpace=wrap;rounded=0;" vertex="1" parent="1">
          <mxGeometry x="575" y="80" width="40" height="20" as="geometry" />
        </mxCell>
        <mxCell id="yDHque_QThykMow6FpCP-52" value="&lt;font style=&quot;font-size: 18px&quot;&gt;账号&lt;/font&gt;" style="ellipse;whiteSpace=wrap;html=1;" vertex="1" parent="1">
          <mxGeometry x="250" y="-380" width="90" height="60" as="geometry" />
        </mxCell>
        <mxCell id="yDHque_QThykMow6FpCP-54" value="&lt;font style=&quot;font-size: 18px&quot;&gt;密码&lt;/font&gt;" style="ellipse;whiteSpace=wrap;html=1;" vertex="1" parent="1">
          <mxGeometry x="360" y="-440" width="90" height="60" as="geometry" />
        </mxCell>
        <mxCell id="yDHque_QThykMow6FpCP-56" value="" style="endArrow=none;html=1;exitX=0.5;exitY=1;exitDx=0;exitDy=0;entryX=0.5;entryY=0;entryDx=0;entryDy=0;" edge="1" parent="1" source="yDHque_QThykMow6FpCP-54" target="yDHque_QThykMow6FpCP-2">
          <mxGeometry width="50" height="50" relative="1" as="geometry">
            <mxPoint x="500" y="-330" as="sourcePoint" />
            <mxPoint x="550" y="-380" as="targetPoint" />
          </mxGeometry>
        </mxCell>
        <mxCell id="yDHque_QThykMow6FpCP-57" value="" style="endArrow=none;html=1;exitX=1;exitY=1;exitDx=0;exitDy=0;entryX=0.5;entryY=0;entryDx=0;entryDy=0;" edge="1" parent="1" source="yDHque_QThykMow6FpCP-52" target="yDHque_QThykMow6FpCP-2">
          <mxGeometry width="50" height="50" relative="1" as="geometry">
            <mxPoint x="280" y="-190" as="sourcePoint" />
            <mxPoint x="330" y="-240" as="targetPoint" />
          </mxGeometry>
        </mxCell>
        <mxCell id="yDHque_QThykMow6FpCP-58" value="&lt;font style=&quot;font-size: 18px&quot;&gt;账号&lt;/font&gt;" style="ellipse;whiteSpace=wrap;html=1;" vertex="1" parent="1">
          <mxGeometry x="600" y="-440" width="90" height="60" as="geometry" />
        </mxCell>
        <mxCell id="yDHque_QThykMow6FpCP-59" value="&lt;font style=&quot;font-size: 18px&quot;&gt;密码&lt;/font&gt;" style="ellipse;whiteSpace=wrap;html=1;" vertex="1" parent="1">
          <mxGeometry x="700" y="-440" width="90" height="60" as="geometry" />
        </mxCell>
        <mxCell id="yDHque_QThykMow6FpCP-61" value="&lt;font style=&quot;font-size: 18px&quot;&gt;名称&lt;/font&gt;" style="ellipse;whiteSpace=wrap;html=1;" vertex="1" parent="1">
          <mxGeometry x="800" y="-440" width="90" height="60" as="geometry" />
        </mxCell>
        <mxCell id="yDHque_QThykMow6FpCP-62" value="&lt;font style=&quot;font-size: 18px&quot;&gt;性别&lt;/font&gt;" style="ellipse;whiteSpace=wrap;html=1;" vertex="1" parent="1">
          <mxGeometry x="900" y="-440" width="90" height="60" as="geometry" />
        </mxCell>
        <mxCell id="yDHque_QThykMow6FpCP-63" value="&lt;font style=&quot;font-size: 18px&quot;&gt;手机号&lt;/font&gt;" style="ellipse;whiteSpace=wrap;html=1;" vertex="1" parent="1">
          <mxGeometry x="990" y="-440" width="90" height="60" as="geometry" />
        </mxCell>
        <mxCell id="yDHque_QThykMow6FpCP-64" value="&lt;font style=&quot;font-size: 18px&quot;&gt;身份&lt;/font&gt;" style="ellipse;whiteSpace=wrap;html=1;" vertex="1" parent="1">
          <mxGeometry x="1080" y="-440" width="90" height="60" as="geometry" />
        </mxCell>
        <mxCell id="yDHque_QThykMow6FpCP-69" value="&lt;font style=&quot;font-size: 18px&quot;&gt;信息id&lt;/font&gt;" style="ellipse;whiteSpace=wrap;html=1;" vertex="1" parent="1">
          <mxGeometry x="280" y="-30" width="90" height="60" as="geometry" />
        </mxCell>
        <mxCell id="yDHque_QThykMow6FpCP-70" value="&lt;font style=&quot;font-size: 18px&quot;&gt;类型&lt;/font&gt;" style="ellipse;whiteSpace=wrap;html=1;" vertex="1" parent="1">
          <mxGeometry x="300" y="60" width="90" height="60" as="geometry" />
        </mxCell>
        <mxCell id="yDHque_QThykMow6FpCP-71" value="&lt;font style=&quot;font-size: 18px&quot;&gt;发起用户&lt;/font&gt;&lt;span style=&quot;color: rgba(0 , 0 , 0 , 0) ; font-family: monospace ; font-size: 0px&quot;&gt;%3CmxGraphModel%3E%3Croot%3E%3CmxCell%20id%3D%220%22%2F%3E%3CmxCell%20id%3D%221%22%20parent%3D%220%22%2F%3E%3CmxCell%20id%3D%222%22%20value%3D%22%26lt%3Bfont%20style%3D%26quot%3Bfont-size%3A%2018px%26quot%3B%26gt%3B%E4%BF%A1%E6%81%AFid%26lt%3B%2Ffont%26gt%3B%22%20style%3D%22ellipse%3BwhiteSpace%3Dwrap%3Bhtml%3D1%3B%22%20vertex%3D%221%22%20parent%3D%221%22%3E%3CmxGeometry%20x%3D%22220%22%20y%3D%2250%22%20width%3D%2290%22%20height%3D%2260%22%20as%3D%22geometry%22%2F%3E%3C%2FmxCell%3E%3C%2Froot%3E%3C%2FmxGraphModel%3E&lt;/span&gt;" style="ellipse;whiteSpace=wrap;html=1;" vertex="1" parent="1">
          <mxGeometry x="300" y="140" width="90" height="60" as="geometry" />
        </mxCell>
        <mxCell id="yDHque_QThykMow6FpCP-72" value="&lt;font style=&quot;font-size: 18px&quot;&gt;接受中介&lt;/font&gt;" style="ellipse;whiteSpace=wrap;html=1;" vertex="1" parent="1">
          <mxGeometry x="340" y="210" width="90" height="60" as="geometry" />
        </mxCell>
        <mxCell id="yDHque_QThykMow6FpCP-73" value="&lt;font style=&quot;font-size: 18px&quot;&gt;状态&lt;/font&gt;" style="ellipse;whiteSpace=wrap;html=1;" vertex="1" parent="1">
          <mxGeometry x="420" y="250" width="90" height="60" as="geometry" />
        </mxCell>
        <mxCell id="yDHque_QThykMow6FpCP-74" value="&lt;font style=&quot;font-size: 18px&quot;&gt;时间&lt;/font&gt;" style="ellipse;whiteSpace=wrap;html=1;" vertex="1" parent="1">
          <mxGeometry x="520" y="280" width="90" height="60" as="geometry" />
        </mxCell>
        <mxCell id="yDHque_QThykMow6FpCP-75" value="&lt;font style=&quot;font-size: 18px&quot;&gt;类型&lt;/font&gt;" style="ellipse;whiteSpace=wrap;html=1;" vertex="1" parent="1">
          <mxGeometry x="660" y="200" width="90" height="60" as="geometry" />
        </mxCell>
        <mxCell id="yDHque_QThykMow6FpCP-77" value="&lt;font style=&quot;font-size: 18px&quot;&gt;发起果商&lt;/font&gt;" style="ellipse;whiteSpace=wrap;html=1;" vertex="1" parent="1">
          <mxGeometry x="690" y="260" width="90" height="60" as="geometry" />
        </mxCell>
        <mxCell id="yDHque_QThykMow6FpCP-78" value="&lt;font style=&quot;font-size: 18px&quot;&gt;标题&lt;/font&gt;" style="ellipse;whiteSpace=wrap;html=1;" vertex="1" parent="1">
          <mxGeometry x="760" y="310" width="90" height="60" as="geometry" />
        </mxCell>
        <mxCell id="yDHque_QThykMow6FpCP-79" value="&lt;font style=&quot;font-size: 18px&quot;&gt;价格&lt;/font&gt;" style="ellipse;whiteSpace=wrap;html=1;" vertex="1" parent="1">
          <mxGeometry x="870" y="310" width="90" height="60" as="geometry" />
        </mxCell>
        <mxCell id="yDHque_QThykMow6FpCP-80" value="&lt;font style=&quot;font-size: 18px&quot;&gt;时间&lt;/font&gt;" style="ellipse;whiteSpace=wrap;html=1;" vertex="1" parent="1">
          <mxGeometry x="960" y="280" width="90" height="60" as="geometry" />
        </mxCell>
        <mxCell id="yDHque_QThykMow6FpCP-81" value="&lt;span style=&quot;font-size: 18px&quot;&gt;重量&lt;/span&gt;" style="ellipse;whiteSpace=wrap;html=1;" vertex="1" parent="1">
          <mxGeometry x="970" y="210" width="90" height="60" as="geometry" />
        </mxCell>
        <mxCell id="yDHque_QThykMow6FpCP-82" value="&lt;font style=&quot;font-size: 18px&quot;&gt;类型&lt;/font&gt;" style="ellipse;whiteSpace=wrap;html=1;" vertex="1" parent="1">
          <mxGeometry x="1220" y="260" width="90" height="60" as="geometry" />
        </mxCell>
        <mxCell id="yDHque_QThykMow6FpCP-83" value="&lt;font style=&quot;font-size: 18px&quot;&gt;发起果农&lt;/font&gt;" style="ellipse;whiteSpace=wrap;html=1;" vertex="1" parent="1">
          <mxGeometry x="1310" y="220" width="90" height="60" as="geometry" />
        </mxCell>
        <mxCell id="yDHque_QThykMow6FpCP-84" value="&lt;font style=&quot;font-size: 18px&quot;&gt;标题&lt;/font&gt;" style="ellipse;whiteSpace=wrap;html=1;" vertex="1" parent="1">
          <mxGeometry x="1340" y="160" width="90" height="60" as="geometry" />
        </mxCell>
        <mxCell id="yDHque_QThykMow6FpCP-85" value="&lt;font style=&quot;font-size: 18px&quot;&gt;价格&lt;/font&gt;" style="ellipse;whiteSpace=wrap;html=1;" vertex="1" parent="1">
          <mxGeometry x="1320" width="90" height="60" as="geometry" />
        </mxCell>
        <mxCell id="yDHque_QThykMow6FpCP-86" value="&lt;font style=&quot;font-size: 18px&quot;&gt;时间&lt;/font&gt;" style="ellipse;whiteSpace=wrap;html=1;" vertex="1" parent="1">
          <mxGeometry x="1340" y="80" width="90" height="60" as="geometry" />
        </mxCell>
        <mxCell id="yDHque_QThykMow6FpCP-87" value="&lt;font style=&quot;font-size: 18px&quot;&gt;种地面积&lt;/font&gt;" style="ellipse;whiteSpace=wrap;html=1;" vertex="1" parent="1">
          <mxGeometry x="1110" y="270" width="90" height="60" as="geometry" />
        </mxCell>
        <mxCell id="yDHque_QThykMow6FpCP-88" value="" style="endArrow=none;html=1;exitX=1;exitY=0.5;exitDx=0;exitDy=0;entryX=0;entryY=0.5;entryDx=0;entryDy=0;" edge="1" parent="1" source="yDHque_QThykMow6FpCP-69" target="yDHque_QThykMow6FpCP-4">
          <mxGeometry width="50" height="50" relative="1" as="geometry">
            <mxPoint x="420" y="-30" as="sourcePoint" />
            <mxPoint x="530" y="120" as="targetPoint" />
          </mxGeometry>
        </mxCell>
        <mxCell id="yDHque_QThykMow6FpCP-89" value="" style="endArrow=none;html=1;exitX=1;exitY=0.5;exitDx=0;exitDy=0;entryX=0;entryY=0.5;entryDx=0;entryDy=0;" edge="1" parent="1" source="yDHque_QThykMow6FpCP-70" target="yDHque_QThykMow6FpCP-4">
          <mxGeometry width="50" height="50" relative="1" as="geometry">
            <mxPoint x="430" y="170" as="sourcePoint" />
            <mxPoint x="480" y="120" as="targetPoint" />
          </mxGeometry>
        </mxCell>
        <mxCell id="yDHque_QThykMow6FpCP-90" value="" style="endArrow=none;html=1;exitX=1;exitY=0.5;exitDx=0;exitDy=0;entryX=0;entryY=0.5;entryDx=0;entryDy=0;" edge="1" parent="1" source="yDHque_QThykMow6FpCP-71" target="yDHque_QThykMow6FpCP-4">
          <mxGeometry width="50" height="50" relative="1" as="geometry">
            <mxPoint x="450" y="210" as="sourcePoint" />
            <mxPoint x="500" y="160" as="targetPoint" />
          </mxGeometry>
        </mxCell>
        <mxCell id="yDHque_QThykMow6FpCP-93" value="" style="endArrow=none;html=1;entryX=0;entryY=0.5;entryDx=0;entryDy=0;exitX=1;exitY=0;exitDx=0;exitDy=0;" edge="1" parent="1" source="yDHque_QThykMow6FpCP-72" target="yDHque_QThykMow6FpCP-4">
          <mxGeometry width="50" height="50" relative="1" as="geometry">
            <mxPoint x="320" y="340" as="sourcePoint" />
            <mxPoint x="370" y="290" as="targetPoint" />
          </mxGeometry>
        </mxCell>
        <mxCell id="yDHque_QThykMow6FpCP-94" value="" style="endArrow=none;html=1;entryX=0;entryY=0.5;entryDx=0;entryDy=0;" edge="1" parent="1" source="yDHque_QThykMow6FpCP-73" target="yDHque_QThykMow6FpCP-4">
          <mxGeometry width="50" height="50" relative="1" as="geometry">
            <mxPoint x="520" y="270" as="sourcePoint" />
            <mxPoint x="535" y="160" as="targetPoint" />
          </mxGeometry>
        </mxCell>
        <mxCell id="yDHque_QThykMow6FpCP-95" value="" style="endArrow=none;html=1;entryX=0;entryY=0.5;entryDx=0;entryDy=0;exitX=0.5;exitY=0;exitDx=0;exitDy=0;" edge="1" parent="1" source="yDHque_QThykMow6FpCP-74" target="yDHque_QThykMow6FpCP-4">
          <mxGeometry width="50" height="50" relative="1" as="geometry">
            <mxPoint x="580" y="290" as="sourcePoint" />
            <mxPoint x="630" y="240" as="targetPoint" />
          </mxGeometry>
        </mxCell>
        <mxCell id="yDHque_QThykMow6FpCP-96" value="" style="endArrow=none;html=1;entryX=0.5;entryY=1;entryDx=0;entryDy=0;exitX=1;exitY=0.5;exitDx=0;exitDy=0;" edge="1" parent="1" source="yDHque_QThykMow6FpCP-75" target="yDHque_QThykMow6FpCP-6">
          <mxGeometry width="50" height="50" relative="1" as="geometry">
            <mxPoint x="810" y="260" as="sourcePoint" />
            <mxPoint x="860" y="210" as="targetPoint" />
          </mxGeometry>
        </mxCell>
        <mxCell id="yDHque_QThykMow6FpCP-97" value="" style="endArrow=none;html=1;entryX=0.5;entryY=1;entryDx=0;entryDy=0;exitX=1;exitY=0;exitDx=0;exitDy=0;" edge="1" parent="1" source="yDHque_QThykMow6FpCP-77" target="yDHque_QThykMow6FpCP-6">
          <mxGeometry width="50" height="50" relative="1" as="geometry">
            <mxPoint x="830" y="280" as="sourcePoint" />
            <mxPoint x="880" y="230" as="targetPoint" />
          </mxGeometry>
        </mxCell>
        <mxCell id="yDHque_QThykMow6FpCP-98" value="" style="endArrow=none;html=1;exitX=0.5;exitY=0;exitDx=0;exitDy=0;" edge="1" parent="1" source="yDHque_QThykMow6FpCP-78">
          <mxGeometry width="50" height="50" relative="1" as="geometry">
            <mxPoint x="850" y="290" as="sourcePoint" />
            <mxPoint x="880" y="180" as="targetPoint" />
          </mxGeometry>
        </mxCell>
        <mxCell id="yDHque_QThykMow6FpCP-99" value="" style="endArrow=none;html=1;entryX=0.5;entryY=1;entryDx=0;entryDy=0;exitX=0.5;exitY=0;exitDx=0;exitDy=0;" edge="1" parent="1" source="yDHque_QThykMow6FpCP-79" target="yDHque_QThykMow6FpCP-6">
          <mxGeometry width="50" height="50" relative="1" as="geometry">
            <mxPoint x="850" y="300" as="sourcePoint" />
            <mxPoint x="900" y="250" as="targetPoint" />
          </mxGeometry>
        </mxCell>
        <mxCell id="yDHque_QThykMow6FpCP-100" value="" style="endArrow=none;html=1;exitX=0;exitY=0;exitDx=0;exitDy=0;" edge="1" parent="1" source="yDHque_QThykMow6FpCP-80">
          <mxGeometry width="50" height="50" relative="1" as="geometry">
            <mxPoint x="910" y="270" as="sourcePoint" />
            <mxPoint x="880" y="180" as="targetPoint" />
          </mxGeometry>
        </mxCell>
        <mxCell id="yDHque_QThykMow6FpCP-101" value="" style="endArrow=none;html=1;exitX=0.5;exitY=1;exitDx=0;exitDy=0;entryX=0;entryY=0.5;entryDx=0;entryDy=0;" edge="1" parent="1" source="yDHque_QThykMow6FpCP-6" target="yDHque_QThykMow6FpCP-81">
          <mxGeometry width="50" height="50" relative="1" as="geometry">
            <mxPoint x="1020" y="180" as="sourcePoint" />
            <mxPoint x="1070" y="130" as="targetPoint" />
          </mxGeometry>
        </mxCell>
        <mxCell id="yDHque_QThykMow6FpCP-102" value="" style="endArrow=none;html=1;entryX=1;entryY=0.5;entryDx=0;entryDy=0;exitX=0.5;exitY=0;exitDx=0;exitDy=0;" edge="1" parent="1" source="yDHque_QThykMow6FpCP-87" target="yDHque_QThykMow6FpCP-7">
          <mxGeometry width="50" height="50" relative="1" as="geometry">
            <mxPoint x="1160" y="270" as="sourcePoint" />
            <mxPoint x="1210" y="220" as="targetPoint" />
          </mxGeometry>
        </mxCell>
        <mxCell id="yDHque_QThykMow6FpCP-105" value="" style="endArrow=none;html=1;exitX=0.5;exitY=0;exitDx=0;exitDy=0;entryX=1;entryY=0.5;entryDx=0;entryDy=0;" edge="1" parent="1" source="yDHque_QThykMow6FpCP-82" target="yDHque_QThykMow6FpCP-7">
          <mxGeometry width="50" height="50" relative="1" as="geometry">
            <mxPoint x="1200" y="260" as="sourcePoint" />
            <mxPoint x="1140" y="180" as="targetPoint" />
          </mxGeometry>
        </mxCell>
        <mxCell id="yDHque_QThykMow6FpCP-106" value="&lt;font style=&quot;font-size: 18px&quot;&gt;id&lt;/font&gt;" style="ellipse;whiteSpace=wrap;html=1;" vertex="1" parent="1">
          <mxGeometry x="680" y="130" width="90" height="60" as="geometry" />
        </mxCell>
        <mxCell id="yDHque_QThykMow6FpCP-107" value="" style="endArrow=none;html=1;exitX=1;exitY=0.5;exitDx=0;exitDy=0;entryX=0.5;entryY=1;entryDx=0;entryDy=0;" edge="1" parent="1" source="yDHque_QThykMow6FpCP-106" target="yDHque_QThykMow6FpCP-6">
          <mxGeometry width="50" height="50" relative="1" as="geometry">
            <mxPoint x="760" y="90" as="sourcePoint" />
            <mxPoint x="810" y="40" as="targetPoint" />
          </mxGeometry>
        </mxCell>
        <mxCell id="yDHque_QThykMow6FpCP-108" value="&lt;font style=&quot;font-size: 18px&quot;&gt;id&lt;/font&gt;" style="ellipse;whiteSpace=wrap;html=1;" vertex="1" parent="1">
          <mxGeometry x="1230" y="-30" width="90" height="60" as="geometry" />
        </mxCell>
        <mxCell id="yDHque_QThykMow6FpCP-109" value="" style="endArrow=none;html=1;entryX=0;entryY=0;entryDx=0;entryDy=0;exitX=1;exitY=0.5;exitDx=0;exitDy=0;" edge="1" parent="1" source="yDHque_QThykMow6FpCP-7" target="yDHque_QThykMow6FpCP-83">
          <mxGeometry width="50" height="50" relative="1" as="geometry">
            <mxPoint x="1200" y="180" as="sourcePoint" />
            <mxPoint x="1290" y="140" as="targetPoint" />
          </mxGeometry>
        </mxCell>
        <mxCell id="yDHque_QThykMow6FpCP-110" value="" style="endArrow=none;html=1;entryX=0.5;entryY=1;entryDx=0;entryDy=0;exitX=1;exitY=0.5;exitDx=0;exitDy=0;" edge="1" parent="1" source="yDHque_QThykMow6FpCP-7" target="yDHque_QThykMow6FpCP-108">
          <mxGeometry width="50" height="50" relative="1" as="geometry">
            <mxPoint x="1250" y="140" as="sourcePoint" />
            <mxPoint x="1300" y="90" as="targetPoint" />
          </mxGeometry>
        </mxCell>
        <mxCell id="yDHque_QThykMow6FpCP-111" value="" style="endArrow=none;html=1;entryX=0;entryY=1;entryDx=0;entryDy=0;" edge="1" parent="1" target="yDHque_QThykMow6FpCP-85">
          <mxGeometry width="50" height="50" relative="1" as="geometry">
            <mxPoint x="1200" y="150" as="sourcePoint" />
            <mxPoint x="1340" y="90" as="targetPoint" />
          </mxGeometry>
        </mxCell>
        <mxCell id="yDHque_QThykMow6FpCP-112" value="" style="endArrow=none;html=1;entryX=0;entryY=0.5;entryDx=0;entryDy=0;" edge="1" parent="1" target="yDHque_QThykMow6FpCP-86">
          <mxGeometry width="50" height="50" relative="1" as="geometry">
            <mxPoint x="1200" y="150" as="sourcePoint" />
            <mxPoint x="1330" y="130" as="targetPoint" />
          </mxGeometry>
        </mxCell>
        <mxCell id="yDHque_QThykMow6FpCP-113" value="" style="endArrow=none;html=1;entryX=0;entryY=0.5;entryDx=0;entryDy=0;" edge="1" parent="1" target="yDHque_QThykMow6FpCP-84">
          <mxGeometry width="50" height="50" relative="1" as="geometry">
            <mxPoint x="1200" y="150" as="sourcePoint" />
            <mxPoint x="1340" y="150" as="targetPoint" />
          </mxGeometry>
        </mxCell>
        <mxCell id="yDHque_QThykMow6FpCP-114" value="" style="endArrow=none;html=1;exitX=0.5;exitY=1;exitDx=0;exitDy=0;" edge="1" parent="1" source="yDHque_QThykMow6FpCP-58">
          <mxGeometry width="50" height="50" relative="1" as="geometry">
            <mxPoint x="680" y="-290" as="sourcePoint" />
            <mxPoint x="880" y="-160" as="targetPoint" />
          </mxGeometry>
        </mxCell>
        <mxCell id="yDHque_QThykMow6FpCP-116" value="" style="endArrow=none;html=1;entryX=0.5;entryY=1;entryDx=0;entryDy=0;exitX=0.5;exitY=0;exitDx=0;exitDy=0;" edge="1" parent="1" source="yDHque_QThykMow6FpCP-3" target="yDHque_QThykMow6FpCP-59">
          <mxGeometry width="50" height="50" relative="1" as="geometry">
            <mxPoint x="820" y="-270" as="sourcePoint" />
            <mxPoint x="870" y="-320" as="targetPoint" />
          </mxGeometry>
        </mxCell>
        <mxCell id="yDHque_QThykMow6FpCP-117" value="" style="endArrow=none;html=1;entryX=0.5;entryY=1;entryDx=0;entryDy=0;exitX=0.5;exitY=0;exitDx=0;exitDy=0;" edge="1" parent="1" source="yDHque_QThykMow6FpCP-3" target="yDHque_QThykMow6FpCP-61">
          <mxGeometry width="50" height="50" relative="1" as="geometry">
            <mxPoint x="920" y="-210" as="sourcePoint" />
            <mxPoint x="970" y="-260" as="targetPoint" />
          </mxGeometry>
        </mxCell>
        <mxCell id="yDHque_QThykMow6FpCP-118" value="" style="endArrow=none;html=1;entryX=0.5;entryY=1;entryDx=0;entryDy=0;exitX=0.5;exitY=0;exitDx=0;exitDy=0;" edge="1" parent="1" source="yDHque_QThykMow6FpCP-3" target="yDHque_QThykMow6FpCP-62">
          <mxGeometry width="50" height="50" relative="1" as="geometry">
            <mxPoint x="960" y="-210" as="sourcePoint" />
            <mxPoint x="1010" y="-260" as="targetPoint" />
          </mxGeometry>
        </mxCell>
        <mxCell id="yDHque_QThykMow6FpCP-119" value="" style="endArrow=none;html=1;exitX=0.5;exitY=0;exitDx=0;exitDy=0;" edge="1" parent="1" source="yDHque_QThykMow6FpCP-3" target="yDHque_QThykMow6FpCP-63">
          <mxGeometry width="50" height="50" relative="1" as="geometry">
            <mxPoint x="1010" y="-190" as="sourcePoint" />
            <mxPoint x="1060" y="-240" as="targetPoint" />
          </mxGeometry>
        </mxCell>
        <mxCell id="yDHque_QThykMow6FpCP-120" value="" style="endArrow=none;html=1;entryX=0.5;entryY=1;entryDx=0;entryDy=0;" edge="1" parent="1" target="yDHque_QThykMow6FpCP-64">
          <mxGeometry width="50" height="50" relative="1" as="geometry">
            <mxPoint x="890" y="-160" as="sourcePoint" />
            <mxPoint x="1090" y="-250" as="targetPoint" />
          </mxGeometry>
        </mxCell>
        <mxCell id="yDHque_QThykMow6FpCP-121" value="&lt;font style=&quot;font-size: 24px&quot;&gt;属于&lt;/font&gt;" style="rhombus;whiteSpace=wrap;html=1;" vertex="1" parent="1">
          <mxGeometry x="1080" y="-300" width="110" height="60" as="geometry" />
        </mxCell>
        <mxCell id="yDHque_QThykMow6FpCP-122" value="&lt;font style=&quot;font-size: 24px&quot;&gt;属于&lt;/font&gt;" style="rhombus;whiteSpace=wrap;html=1;" vertex="1" parent="1">
          <mxGeometry x="1080" y="-210" width="110" height="60" as="geometry" />
        </mxCell>
        <mxCell id="yDHque_QThykMow6FpCP-123" value="&lt;font style=&quot;font-size: 24px&quot;&gt;属于&lt;/font&gt;" style="rhombus;whiteSpace=wrap;html=1;" vertex="1" parent="1">
          <mxGeometry x="1080" y="-130" width="110" height="60" as="geometry" />
        </mxCell>
        <mxCell id="yDHque_QThykMow6FpCP-124" value="" style="endArrow=none;html=1;entryX=0;entryY=0.5;entryDx=0;entryDy=0;exitX=1;exitY=0.5;exitDx=0;exitDy=0;startArrow=none;" edge="1" parent="1" source="yDHque_QThykMow6FpCP-131" target="yDHque_QThykMow6FpCP-121">
          <mxGeometry width="50" height="50" relative="1" as="geometry">
            <mxPoint x="980" y="-140" as="sourcePoint" />
            <mxPoint x="1030" y="-190" as="targetPoint" />
          </mxGeometry>
        </mxCell>
        <mxCell id="yDHque_QThykMow6FpCP-126" value="" style="endArrow=none;html=1;entryX=0;entryY=0.5;entryDx=0;entryDy=0;startArrow=none;" edge="1" parent="1" source="yDHque_QThykMow6FpCP-132" target="yDHque_QThykMow6FpCP-122">
          <mxGeometry width="50" height="50" relative="1" as="geometry">
            <mxPoint x="940" y="-130" as="sourcePoint" />
            <mxPoint x="1070" y="-150" as="targetPoint" />
          </mxGeometry>
        </mxCell>
        <mxCell id="yDHque_QThykMow6FpCP-127" value="" style="endArrow=none;html=1;entryX=0;entryY=0.5;entryDx=0;entryDy=0;exitX=1;exitY=0.5;exitDx=0;exitDy=0;startArrow=none;" edge="1" parent="1" source="yDHque_QThykMow6FpCP-134" target="yDHque_QThykMow6FpCP-123">
          <mxGeometry width="50" height="50" relative="1" as="geometry">
            <mxPoint x="1010" y="-70" as="sourcePoint" />
            <mxPoint x="1060" y="-120" as="targetPoint" />
          </mxGeometry>
        </mxCell>
        <mxCell id="yDHque_QThykMow6FpCP-128" value="" style="endArrow=none;html=1;entryX=0;entryY=0.5;entryDx=0;entryDy=0;exitX=1;exitY=0.5;exitDx=0;exitDy=0;startArrow=none;" edge="1" parent="1" source="yDHque_QThykMow6FpCP-144" target="yDHque_QThykMow6FpCP-8">
          <mxGeometry width="50" height="50" relative="1" as="geometry">
            <mxPoint x="1220" y="-230" as="sourcePoint" />
            <mxPoint x="1270" y="-280" as="targetPoint" />
          </mxGeometry>
        </mxCell>
        <mxCell id="yDHque_QThykMow6FpCP-129" value="" style="endArrow=none;html=1;entryX=0;entryY=0.5;entryDx=0;entryDy=0;exitX=1;exitY=0.5;exitDx=0;exitDy=0;startArrow=none;" edge="1" parent="1" source="yDHque_QThykMow6FpCP-146" target="yDHque_QThykMow6FpCP-10">
          <mxGeometry width="50" height="50" relative="1" as="geometry">
            <mxPoint x="1220" y="-130" as="sourcePoint" />
            <mxPoint x="1270" y="-180" as="targetPoint" />
          </mxGeometry>
        </mxCell>
        <mxCell id="yDHque_QThykMow6FpCP-130" value="" style="endArrow=none;html=1;entryX=0;entryY=0.5;entryDx=0;entryDy=0;exitX=1;exitY=0.5;exitDx=0;exitDy=0;startArrow=none;" edge="1" parent="1" source="yDHque_QThykMow6FpCP-148" target="yDHque_QThykMow6FpCP-9">
          <mxGeometry width="50" height="50" relative="1" as="geometry">
            <mxPoint x="1230" y="-60" as="sourcePoint" />
            <mxPoint x="1280" y="-110" as="targetPoint" />
          </mxGeometry>
        </mxCell>
        <mxCell id="yDHque_QThykMow6FpCP-132" value="&lt;font style=&quot;font-size: 24px&quot;&gt;1&lt;/font&gt;" style="text;html=1;strokeColor=none;fillColor=none;align=center;verticalAlign=middle;whiteSpace=wrap;rounded=0;" vertex="1" parent="1">
          <mxGeometry x="1000" y="-180" width="40" height="20" as="geometry" />
        </mxCell>
        <mxCell id="yDHque_QThykMow6FpCP-133" value="" style="endArrow=none;html=1;entryX=0;entryY=0.5;entryDx=0;entryDy=0;" edge="1" parent="1" target="yDHque_QThykMow6FpCP-132">
          <mxGeometry width="50" height="50" relative="1" as="geometry">
            <mxPoint x="940" y="-130" as="sourcePoint" />
            <mxPoint x="1080" y="-180" as="targetPoint" />
          </mxGeometry>
        </mxCell>
        <mxCell id="yDHque_QThykMow6FpCP-134" value="&lt;font style=&quot;font-size: 24px&quot;&gt;1&lt;/font&gt;" style="text;html=1;strokeColor=none;fillColor=none;align=center;verticalAlign=middle;whiteSpace=wrap;rounded=0;" vertex="1" parent="1">
          <mxGeometry x="1000" y="-120" width="40" height="20" as="geometry" />
        </mxCell>
        <mxCell id="yDHque_QThykMow6FpCP-135" value="" style="endArrow=none;html=1;entryX=0;entryY=0.5;entryDx=0;entryDy=0;exitX=1;exitY=0.5;exitDx=0;exitDy=0;" edge="1" parent="1" source="yDHque_QThykMow6FpCP-3" target="yDHque_QThykMow6FpCP-134">
          <mxGeometry width="50" height="50" relative="1" as="geometry">
            <mxPoint x="940" y="-130" as="sourcePoint" />
            <mxPoint x="1080" y="-100" as="targetPoint" />
          </mxGeometry>
        </mxCell>
        <mxCell id="yDHque_QThykMow6FpCP-131" value="&lt;font style=&quot;font-size: 24px&quot;&gt;1&lt;/font&gt;" style="text;html=1;strokeColor=none;fillColor=none;align=center;verticalAlign=middle;whiteSpace=wrap;rounded=0;" vertex="1" parent="1">
          <mxGeometry x="1000" y="-220" width="40" height="20" as="geometry" />
        </mxCell>
        <mxCell id="yDHque_QThykMow6FpCP-137" value="" style="endArrow=none;html=1;entryX=0;entryY=0.5;entryDx=0;entryDy=0;exitX=1;exitY=0.5;exitDx=0;exitDy=0;" edge="1" parent="1" source="yDHque_QThykMow6FpCP-3" target="yDHque_QThykMow6FpCP-131">
          <mxGeometry width="50" height="50" relative="1" as="geometry">
            <mxPoint x="940" y="-130" as="sourcePoint" />
            <mxPoint x="1080" y="-270" as="targetPoint" />
          </mxGeometry>
        </mxCell>
        <mxCell id="yDHque_QThykMow6FpCP-37" value="&lt;font style=&quot;font-size: 24px&quot;&gt;1&lt;/font&gt;" style="text;html=1;strokeColor=none;fillColor=none;align=center;verticalAlign=middle;whiteSpace=wrap;rounded=0;" vertex="1" parent="1">
          <mxGeometry x="495" y="-250" width="40" height="20" as="geometry" />
        </mxCell>
        <mxCell id="yDHque_QThykMow6FpCP-138" value="" style="endArrow=none;html=1;exitX=1;exitY=0.5;exitDx=0;exitDy=0;entryX=0;entryY=0.5;entryDx=0;entryDy=0;" edge="1" parent="1" source="yDHque_QThykMow6FpCP-2" target="yDHque_QThykMow6FpCP-37">
          <mxGeometry width="50" height="50" relative="1" as="geometry">
            <mxPoint x="480" y="-280" as="sourcePoint" />
            <mxPoint x="555" y="-200" as="targetPoint" />
          </mxGeometry>
        </mxCell>
        <mxCell id="yDHque_QThykMow6FpCP-44" value="&lt;font style=&quot;font-size: 24px&quot;&gt;n&lt;/font&gt;" style="text;html=1;strokeColor=none;fillColor=none;align=center;verticalAlign=middle;whiteSpace=wrap;rounded=0;" vertex="1" parent="1">
          <mxGeometry x="750" y="-190" width="40" height="20" as="geometry" />
        </mxCell>
        <mxCell id="yDHque_QThykMow6FpCP-140" value="" style="endArrow=none;html=1;entryX=0.5;entryY=0;entryDx=0;entryDy=0;exitX=1;exitY=0.5;exitDx=0;exitDy=0;" edge="1" parent="1" source="yDHque_QThykMow6FpCP-33" target="yDHque_QThykMow6FpCP-44">
          <mxGeometry width="50" height="50" relative="1" as="geometry">
            <mxPoint x="685" y="-200" as="sourcePoint" />
            <mxPoint x="880" y="-160" as="targetPoint" />
          </mxGeometry>
        </mxCell>
        <mxCell id="yDHque_QThykMow6FpCP-39" value="&lt;font style=&quot;font-size: 24px&quot;&gt;1&lt;/font&gt;" style="text;html=1;strokeColor=none;fillColor=none;align=center;verticalAlign=middle;whiteSpace=wrap;rounded=0;" vertex="1" parent="1">
          <mxGeometry x="710" y="-80" width="40" height="20" as="geometry" />
        </mxCell>
        <mxCell id="yDHque_QThykMow6FpCP-142" value="" style="endArrow=none;html=1;entryX=0;entryY=1;entryDx=0;entryDy=0;exitX=0.5;exitY=0;exitDx=0;exitDy=0;" edge="1" parent="1" source="yDHque_QThykMow6FpCP-11" target="yDHque_QThykMow6FpCP-39">
          <mxGeometry width="50" height="50" relative="1" as="geometry">
            <mxPoint x="595" y="-20" as="sourcePoint" />
            <mxPoint x="820" y="-100" as="targetPoint" />
          </mxGeometry>
        </mxCell>
        <mxCell id="yDHque_QThykMow6FpCP-144" value="&lt;font style=&quot;font-size: 24px&quot;&gt;n&lt;/font&gt;" style="text;html=1;strokeColor=none;fillColor=none;align=center;verticalAlign=middle;whiteSpace=wrap;rounded=0;" vertex="1" parent="1">
          <mxGeometry x="1220" y="-290" width="40" height="20" as="geometry" />
        </mxCell>
        <mxCell id="yDHque_QThykMow6FpCP-145" value="" style="endArrow=none;html=1;entryX=0;entryY=0.5;entryDx=0;entryDy=0;exitX=1;exitY=0.5;exitDx=0;exitDy=0;" edge="1" parent="1" source="yDHque_QThykMow6FpCP-121" target="yDHque_QThykMow6FpCP-144">
          <mxGeometry width="50" height="50" relative="1" as="geometry">
            <mxPoint x="1190" y="-270" as="sourcePoint" />
            <mxPoint x="1305" y="-290" as="targetPoint" />
          </mxGeometry>
        </mxCell>
        <mxCell id="yDHque_QThykMow6FpCP-146" value="&lt;font style=&quot;font-size: 24px&quot;&gt;n&lt;/font&gt;" style="text;html=1;strokeColor=none;fillColor=none;align=center;verticalAlign=middle;whiteSpace=wrap;rounded=0;" vertex="1" parent="1">
          <mxGeometry x="1230" y="-190" width="40" height="20" as="geometry" />
        </mxCell>
        <mxCell id="yDHque_QThykMow6FpCP-147" value="" style="endArrow=none;html=1;entryX=0;entryY=0.5;entryDx=0;entryDy=0;exitX=1;exitY=0.5;exitDx=0;exitDy=0;" edge="1" parent="1" source="yDHque_QThykMow6FpCP-122" target="yDHque_QThykMow6FpCP-146">
          <mxGeometry width="50" height="50" relative="1" as="geometry">
            <mxPoint x="1190" y="-180" as="sourcePoint" />
            <mxPoint x="1310" y="-180" as="targetPoint" />
          </mxGeometry>
        </mxCell>
        <mxCell id="yDHque_QThykMow6FpCP-148" value="&lt;font style=&quot;font-size: 24px&quot;&gt;n&lt;/font&gt;" style="text;html=1;strokeColor=none;fillColor=none;align=center;verticalAlign=middle;whiteSpace=wrap;rounded=0;" vertex="1" parent="1">
          <mxGeometry x="1230" y="-100" width="40" height="20" as="geometry" />
        </mxCell>
        <mxCell id="yDHque_QThykMow6FpCP-149" value="" style="endArrow=none;html=1;entryX=0;entryY=0.5;entryDx=0;entryDy=0;exitX=1;exitY=0.5;exitDx=0;exitDy=0;" edge="1" parent="1" source="yDHque_QThykMow6FpCP-123" target="yDHque_QThykMow6FpCP-148">
          <mxGeometry width="50" height="50" relative="1" as="geometry">
            <mxPoint x="1190" y="-100" as="sourcePoint" />
            <mxPoint x="1310" y="-80" as="targetPoint" />
          </mxGeometry>
        </mxCell>
      </root>
    </mxGraphModel>
  </diagram>
</mxfile>
